<?xml version="1.0" standalone="no"?>
<!DOCTYPE svg PUBLIC "-//W3C//DTD SVG 1.1//EN" "http://www.w3.org/Graphics/SVG/1.1/DTD/svg11.dtd">
<svg xmlns="http://www.w3.org/2000/svg">
<metadata>Copyright (C) 2022 by original authors @ fontello.com</metadata>
<defs>
<font id="radian" horiz-adv-x="1000" >
<font-face font-family="radian" font-weight="400" font-stretch="normal" units-per-em="1000" ascent="850" descent="-150" />
<missing-glyph horiz-adv-x="1000" />
<glyph glyph-name="mail" unicode="&#x41;" d="M1000 454v-443q0-37-26-63t-63-27h-822q-36 0-63 27t-26 63v443q25-27 56-49 202-137 278-192 32-24 51-37t53-27 61-13h2q28 0 61 13t53 27 51 37q95 68 278 192 32 22 56 49z m0 164q0-44-27-84t-68-69q-210-146-262-181-5-4-23-17t-30-22-29-18-32-15-28-5h-2q-12 0-27 5t-32 15-30 18-30 22-23 17q-51 35-147 101t-114 80q-35 23-65 64t-31 77q0 43 23 72t66 29h822q36 0 63-26t26-63z" horiz-adv-x="1000" />

<glyph glyph-name="battery-0" unicode="&#x42;" d="M1214 529q30 0 51-21t21-51v-214q0-30-21-51t-51-21v-89q0-37-26-63t-63-26h-1036q-36 0-63 26t-26 63v536q0 37 26 63t63 26h1036q37 0 63-26t26-63v-89z m0-286v214h-71v161q0 8-5 13t-13 5h-1036q-7 0-12-5t-6-13v-536q0-8 6-13t12-5h1036q8 0 13 5t5 13v161h71z" horiz-adv-x="1285.7" />

<glyph glyph-name="battery-1" unicode="&#x43;" d="M143 136v428h286v-428h-286z m1071 393q30 0 51-21t21-51v-214q0-30-21-51t-51-21v-89q0-37-26-63t-63-26h-1036q-36 0-63 26t-26 63v536q0 37 26 63t63 26h1036q37 0 63-26t26-63v-89z m0-286v214h-71v161q0 8-5 13t-13 5h-1036q-7 0-12-5t-6-13v-536q0-8 6-13t12-5h1036q8 0 13 5t5 13v161h71z" horiz-adv-x="1285.7" />

<glyph glyph-name="battery-2" unicode="&#x44;" d="M143 136v428h500v-428h-500z m1071 393q30 0 51-21t21-51v-214q0-30-21-51t-51-21v-89q0-37-26-63t-63-26h-1036q-36 0-63 26t-26 63v536q0 37 26 63t63 26h1036q37 0 63-26t26-63v-89z m0-286v214h-71v161q0 8-5 13t-13 5h-1036q-7 0-12-5t-6-13v-536q0-8 6-13t12-5h1036q8 0 13 5t5 13v161h71z" horiz-adv-x="1285.7" />

<glyph glyph-name="battery-3" unicode="&#x45;" d="M143 136v428h714v-428h-714z m1071 393q30 0 51-21t21-51v-214q0-30-21-51t-51-21v-89q0-37-26-63t-63-26h-1036q-36 0-63 26t-26 63v536q0 37 26 63t63 26h1036q37 0 63-26t26-63v-89z m0-286v214h-71v161q0 8-5 13t-13 5h-1036q-7 0-12-5t-6-13v-536q0-8 6-13t12-5h1036q8 0 13 5t5 13v161h71z" horiz-adv-x="1285.7" />

<glyph glyph-name="battery-4" unicode="&#x46;" d="M1071 564v-428h-928v428h928z m72-321h71v214h-71v161q0 8-5 13t-13 5h-1036q-7 0-12-5t-6-13v-536q0-8 6-13t12-5h1036q8 0 13 5t5 13v161z m143 214v-214q0-30-21-51t-51-21v-89q0-37-26-63t-63-26h-1036q-36 0-63 26t-26 63v536q0 37 26 63t63 26h1036q37 0 63-26t26-63v-89q30 0 51-21t21-51z" horiz-adv-x="1285.7" />

<glyph glyph-name="thermometer-3" unicode="&#x47;" d="M357 100q0-45-31-76t-76-31-76 31-31 76q0 34 19 61t52 40v363h72v-363q32-12 52-40t19-61z m72 0q0 43-19 80t-53 63v428q0 45-31 76t-76 32-76-32-31-76v-428q-34-25-53-63t-19-80q0-74 53-126t126-53 126 53 53 126z m71 0q0-103-73-177t-177-73-177 73-73 177q0 102 71 175v396q0 75 53 127t126 52 126-52 53-127v-396q71-73 71-175z m71 321v-71h-107v71h107z m0 143v-71h-107v71h107z m0 143v-71h-107v71h107z" horiz-adv-x="571.4" />

<glyph glyph-name="bullhorn" unicode="&#x48;" d="M251 420c9 0 16 9 16 18s-7 16-16 16l-100 0c-9 0-18-7-18-16s9-18 18-18l100 0z m0-72c9 0 16 9 16 17s-7 17-16 17l-100 0c-9 0-18-8-18-17s9-17 18-17l100 0z m210-14c119 0 211-42 290-121l0 376c-78-82-171-126-290-126l0-129z m497 220l-33 34 137 136 34-32z m25-175l0 48 230 0 0-48-230 0z m-58-171l33 34 138-138-34-32z m-128 516c20 0 36-15 36-34l0-577c0-19-16-34-36-34s-35 15-35 34c-59 72-162 165-317 165l-64 0 140-236-85-62c-21-11-44 3-56 18l-174 280-94 0s-87 47-87 122 87 118 87 118l333 0c155 0 258 96 317 172 0 19 15 34 35 34z" horiz-adv-x="1213" />

<glyph glyph-name="mountain-climber" unicode="&#x4b;" d="M295 211l88-41 21-141c4-28 29-49 57-49 3 0 5 0 8 0 32 5 54 34 49 66l-25 172c-3 19-15 36-33 44l-92 42c0 1 0 1 0 2l1 108c-54 78-42 178-36 210l-116 10c2-38 1-121-46-182l0-41-45 55 23 13c37 54 37 128 35 158l-40 3c-16 2-30-9-32-25l-9-49-77-42c-13-7-22-20-25-34-3-14 1-29 10-41l115-140c10-12 24-18 38-18 3 0 5 1 8 1 0-2 0-5 1-7 0-2 0-5 0-7l14-177-34-178c-6-31 14-61 46-67 3-1 7-1 11-1 27 0 51 19 56 46l36 186c1 5 1 10 1 15l-9 109c0 0 1 0 1 0z m94 231l51-40c9-7 20-10 31-10 1 0 3 0 5 0l130 14-43-359c-2-13 8-26 21-27 1 0 2 0 3 0 13 0 23 9 25 21l45 372c20 8 34 29 31 51-1 15-10 28-21 36l3 21 72-25c39-13 81-17 122-13l68 7c10 1 19 10 20 20l18 143c0 7-2 14-7 19-5 5-12 7-19 7l-29-3c-59-6-118 6-170 35l-49 27 1 10c2 14-8 26-22 28-13 1-25-8-27-22l-30-247-132-14-57 44 11 42c3 8 1 18-4 25-5 8-14 12-23 13l-47 4c-5-23-17-109 23-179z m-51 216c51 18 77 73 59 123-18 50-73 77-123 59-51-18-77-73-59-124 18-50 73-76 123-58z m649-298c-8 3-17 1-23-5l-114-119c-4-5-10-9-16-11l-108-54c-13-6-23-18-28-32l-34-95c-5-16-18-29-33-35l-257-94c-5-2-9-5-12-9l-23-34c-2-3-2-8-1-11 2-3 6-5 9-5h599c30 0 54 24 54 54v430c0 9-5 16-13 20z" horiz-adv-x="1000" />

<glyph glyph-name="recycle" unicode="&#x52;" d="M467 198l-9-206-1-12-234 16q-20 2-38 18t-26 36q-6 15-8 31t2 36 7 31 12 36 11 29q43-6 284-15z m-216 327l100-212-82 52q-35-41-62-81t-41-70-22-53-10-35l-2-11-106 199q-10 14-10 31t3 26l4 10q20 35 64 105l-78 48z m687-289l-105-200q-7-16-21-26t-24-12l-10-2q-40-4-122-7l4-91-128 205 118 202 4-97q94-9 157-2t95 18z m-439 516q-26-35-147-243l-177 104-11 7 126 199q11 17 33 25t45 5q13-1 27-6t23-12 23-18 21-20 20-22 17-19z m366-171l118-203q10-21 7-42t-15-42q-7-11-18-20t-22-16-27-12-26-9-29-8-25-7q-19 40-148 244l174 108z m-80 126l79 46-122-208-234 11 84 48q-19 50-42 93t-42 69-36 44-26 26l-10 7 226 0q18 1 33-6t22-16l6-8q21-34 62-106z" horiz-adv-x="1000" />

<glyph glyph-name="tick" unicode="&#x54;" d="M465 797q184 0 315-131t131-316-131-315-315-132-316 132-131 315 131 316 316 131z m-70-653l348 348-79 79-269-268-126 126-79-78z" horiz-adv-x="928" />

<glyph glyph-name="cross" unicode="&#x58;" d="M465 797q184 0 315-131t131-316-131-315-315-132-316 132-131 315 131 316 316 131z m220-588l-141 142 141 141-79 79-142-141-141 141-79-79 141-141-141-142 79-79 141 141 142-141z" horiz-adv-x="928" />

<glyph glyph-name="heart" unicode="&#x61;" d="M701 325v0c-10 0-20 4-27 12l-45 47-113-202c-7-12-20-20-33-20-3 0-5 1-8 1-16 4-28 17-30 34l-22 254-91-132c-7-10-19-16-31-16h-221c42-66 100-137 174-214 122-126 242-219 247-223 7-6 16-8 24-8 9 0 18 3 26 9 4 4 112 97 222 223 73 85 129 164 167 235h-239z m-17 517c-66 0-131-20-184-59-53 39-117 59-184 59-174 0-316-142-316-316 0-45 13-94 38-148h243l139 202c9 13 26 19 41 15 15-4 27-17 28-33l21-237 78 140c6 11 16 18 28 19 12 2 24-2 32-11l69-73h258c16 46 25 88 25 126 0 174-142 316-316 316z" horiz-adv-x="1000" />

<glyph glyph-name="bell-on" unicode="&#x62;" d="M509-96q0 8-9 8-33 0-57 24t-23 57q0 9-9 9t-9-9q0-41 29-70t69-28q9 0 9 9z m455 160q0-29-21-50t-50-21h-250q0-59-42-101t-101-42-101 42-42 101h-250q-29 0-50 21t-21 50q28 24 51 49t47 67 42 89 27 115 11 145q0 84 66 157t171 89q-5 10-5 21 0 23 16 38t38 16 38-16 16-38q0-11-5-21 106-16 171-89t66-157q0-78 11-145t28-115 41-89 48-67 50-49z" horiz-adv-x="1000" />

<glyph glyph-name="bed" unicode="&#x63;" d="M143 279h964q15 0 25-11t11-25v-250h-143v143h-857v-143h-143v678q0 15 11 26t25 10h71q15 0 25-10t11-26v-392z m321 178q0 59-42 101t-101 42-101-42-41-101 41-101 101-42 101 42 42 101z m679-143v36q0 89-63 152t-151 62h-393q-15 0-25-10t-11-25v-215h643z" horiz-adv-x="1142.9" />

<glyph glyph-name="bluetooth" unicode="&#x64;" d="M469 262l83-82-83-83z m0 341l83-83-83-82z m-73-683l259 259-171 171 171 171-259 259v-341l-142 142-52-52 179-179-179-179 52-52 142 142v-341z m401 430q0-117-17-204t-49-143-79-91-101-48-122-14-123 14-101 48-79 91-48 143-18 204 18 204 48 143 79 91 101 48 123 14 122-14 101-48 79-91 49-143 17-204z" horiz-adv-x="857.1" />

<glyph glyph-name="stopwatch" unicode="&#x65;" d="M607 453c0 0-172-53-205-86-33-33-33-86 0-119 33-33 86-33 119 0 33 33 86 205 86 205z m229 182l88-88 76 76c0 0-50 125-227 227l-76-76 88-88 0 0v0l-19-19c-81 69-186 112-302 112-256 0-464-208-464-465 0-256 208-464 464-464 257 0 465 208 465 464 0 116-43 221-112 302l19 19z m-21-329c0 0 0 0 0-1h6c-4-82-36-160-91-221l-4 5c-1-1-2-2-3-3l-63 63-20-20 67-67c-61-56-138-88-221-92v2c-2 0-4 0-6 0v93h-26v-95c-12 1-25 2-37 4-71 9-137 40-190 89l67 67-18 19-65-65c-1 2-2 3-4 5l-3-3c-57 62-87 141-91 220h95v31h-88c0 1 0 1 0 1h-7c4 80 34 159 91 221l5-4c0 1 1 2 2 3l63-63 20 20-67 67c61 56 138 88 221 91v-2c2 1 4 1 6 1v-94h26v95c12 0 25-2 37-4 71-9 137-40 190-88l-67-68 19-18 64 64c1-1 2-3 4-4l3 3c55-61 87-138 91-221h-95v-31h89v0z" horiz-adv-x="1000" />

<glyph glyph-name="fast-food" unicode="&#x66;" d="M350 675c-150 0-300-75-300-200l0-100 850 0 0 100c0 125-150 200-300 200z m25-50c14 0 25-11 25-25 0-14-11-25-25-25-14 0-25 11-25 25 0 14 11 25 25 25z m200 0c14 0 25-11 25-25 0-14-11-25-25-25-14 0-25 11-25 25 0 14 11 25 25 25z m-300-100c14 0 25-11 25-25 0-14-11-25-25-25-14 0-25 11-25 25 0 14 11 25 25 25z m200 0c14 0 25-11 25-25 0-14-11-25-25-25-14 0-25 11-25 25 0 14 11 25 25 25z m200 0c14 0 25-11 25-25 0-14-11-25-25-25-14 0-25 11-25 25 0 14 11 25 25 25z m-625-200c-25 0-50-25-50-50 0-25 25-50 50-50l850 0c25 0 50 25 50 50 0 25-25 50-50 50z m0-150l0-50c0-50 50-100 100-100l650 0c50 0 100 50 100 100l0 50z" horiz-adv-x="950" />

<glyph glyph-name="fuel" unicode="&#x67;" d="M50 800c-28 0-50-22-50-50l0-800c0-25 25-50 50-50l450 0c25 0 50 25 50 50l0 250 25 0c25 0 25-25 25-25l0-100c0-50 25-75 75-75s75 25 75 75c0 58 0 225 0 275 0 50-100 100-100 150l0 150-50 0-50 50 0 50c0 28-22 50-50 50z m50-100l350 0 0-200-350 0z m450-150l50 0s0-42 0-75c0-50 100-100 100-150l0-250c0-25-25-25-25-25s-25 0-25 25c0 0 0 100 0 125 0 25-25 50-50 50-17 0-50 0-50 0z" horiz-adv-x="750" />

<glyph glyph-name="bell-off" unicode="&#x68;" d="M869 375q35-199 167-311 0-29-21-50t-51-21h-250q0-59-42-101t-101-42-100 42-42 100z m-298-480q9 0 9 9t-9 8q-32 0-56 24t-24 57q0 9-9 9t-9-9q0-41 29-70t69-28z m560 893q4-6 4-14t-6-12l-1045-905q-5-5-13-4t-12 6l-47 53q-4 6-4 14t6 12l104 90q-11 17-11 36 28 24 51 49t47 67 42 89 28 115 11 145q0 84 65 157t171 89q-4 10-4 21 0 23 16 38t37 16 38-16 16-38q0-11-4-21 69-10 122-46t82-88l234 202q5 5 13 4t12-6z" horiz-adv-x="1142.9" />

<glyph glyph-name="medkit" unicode="&#x69;" d="M714 225v107q0 8-5 13t-13 5h-125v125q0 8-5 13t-12 5h-108q-7 0-12-5t-5-13v-125h-125q-8 0-13-5t-5-13v-107q0-8 5-13t13-5h125v-125q0-8 5-13t12-5h108q7 0 12 5t5 13v125h125q8 0 13 5t5 13z m-357 411h286v71h-286v-71z m-214 0v-715h-18q-51 0-88 37t-37 88v465q0 51 37 88t88 37h18z m661 0v-715h-608v715h90v89q0 22 15 38t38 16h322q22 0 38-16t15-38v-89h90z m196-125v-465q0-51-37-88t-88-37h-18v715h18q51 0 88-37t37-88z" horiz-adv-x="1000" />

<glyph glyph-name="timer-stopwatch-svgrepo-com" unicode="&#x6a;" d="M917 548c13 0 26 5 37 15 20 21 20 54 0 74l-67 66c-20 21-53 21-74 0-16-16-19-40-9-59l-27-27c-59 49-131 82-210 95v38h32c19 0 34 15 34 34v32c0 19-15 34-34 34h-198c-19 0-34-15-34-34v-32c0-19 15-34 34-34h32v-38c-79-13-151-46-209-95l-27 27c9 19 6 43-10 60-20 20-53 20-74 0l-66-67c-21-20-21-53 0-74 10-10 23-15 36-15 12 0 24 4 33 12l29-29c-49-70-78-155-78-248 0-239 194-433 433-433 239 0 433 194 433 433 0 93-29 178-78 248l29 29c9-8 21-12 33-12z m-450 202h66v-35c0 0-1 0-1 0-11 1-21 2-32 2-11 0-21-1-31-2-1 0-2 0-2 0v35z m-327-167l35 35 24-23c-12-12-23-24-34-37l-25 25z m727-300c0-100-41-192-107-258 0 0 0-1-1-1 0 0 0 0 0 0-67-67-158-107-259-107-101 0-192 40-258 107-1 0-1 0-1 0 0 0-1 1-1 1-66 66-107 158-107 258 0 101 41 193 107 259 0 0 1 0 1 1 0 0 0 0 1 0 66 66 157 107 258 107 101 0 192-41 259-107 0 0 0 0 0 0 1-1 1-1 1-1 66-66 107-158 107-259z m-32 275c-11 13-22 25-33 37l23 23 35-35-25-25z m-52-258h50c-4 79-36 151-86 207l-35-35c-3-3-7-5-12-5-4 0-8 2-11 5-7 6-7 17 0 24l34 34c-55 50-127 82-206 86v-49c0-9-8-17-17-17s-17 8-17 17v49c-79-4-151-36-206-86l34-34c7-7 7-18 0-24-3-3-7-5-11-5-5 0-9 2-12 5l-35 35c-50-56-81-128-85-207h49c9 0 16-7 16-17 0-9-7-16-16-16h-49c4-80 35-152 85-207l35 35c6 6 17 6 23 0 7-7 7-17 0-24l-34-34c55-51 127-82 206-86v49c0 9 8 17 17 17s17-8 17-17v-49c79 4 151 35 206 86l-34 34c-7 7-7 17 0 24 6 6 17 6 23 0l35-35c50 55 82 127 86 207h-50c-9 0-16 7-16 16 0 10 7 17 16 17z m-283-83c-37 0-66 30-66 67 0 30 21 56 49 64v152c0 9 8 17 17 17s17-8 17-17v-152c28-8 50-34 50-64 0-37-30-67-67-67z m0 100c-18 0-33-15-33-33s15-34 33-34 33 15 33 34-15 33-33 33z" horiz-adv-x="1000" />

<glyph glyph-name="footsteps" unicode="&#x6b;" d="M580 100c54-19 101-30 170-51-27-333-341-201-170 51z m280 305c-3 100-21 231-161 210-65-17-114-89-137-213-12-69-5-165 10-222 13-41 9-38 23-46 56-13 112-27 168-41 58 41 105 256 97 312z m-432 8c15 57 22 153 10 221-23 125-71 197-137 214-140 20-158-110-161-210-8-56 39-271 97-312 56 14 112 28 168 41 14 8 10 5 23 46z m-178-132c27-332 341-200 170 52-54-19-101-31-170-52z" horiz-adv-x="1000" />

<glyph glyph-name="oxygen-tank" unicode="&#x6c;" d="M396 724h-42v-42h104v-41h-104v-44c59-10 104-61 104-123v-42h-250v42c0 62 45 113 105 123v44h-46c-8-25-31-42-59-42-34 0-62 28-62 63 0 34 28 62 62 62 28 0 51-17 59-42h46v42h-42v42h125v-42z m-188-333v-438c0-11 10-21 21-21h209c11 0 20 10 20 21v438h-250z m0 291c-11 0-20-9-20-20 0-12 9-21 20-21 12 0 21 9 21 21 0 11-9 20-21 20z m334-270c0 46 37 83 83 83 46 0 83-37 83-83v-125c0-46-37-84-83-84-46 0-83 38-83 84v125z m83 41c-23 0-42-18-42-41v-125c0-23 19-42 42-42 23 0 42 19 42 42v125c0 23-19 41-42 41z m104-146h63c11 0 21-9 21-20 0-12-10-21-21-21-35 0-63-28-63-63v-41c0-12 10-21 21-21h104v41h-83v21c0 12 9 21 21 21 34 0 62 28 62 63 0 34-28 62-62 62h-63v-42z" horiz-adv-x="1000" />

<glyph glyph-name="alarm-clock" unicode="&#x6d;" d="M789 518l14 9c-28 43-65 80-108 108l-8-14c-3-6-9-9-15-9-3 0-6 1-9 2-8 5-11 16-6 24l8 14c-44 23-95 37-148 40v-17c0-9-7-17-17-17s-17 8-17 17v17l-39-7c-31-5-62-14-92-26l-17-7 8-14c5-8 2-19-6-24-3-1-6-2-9-2-6 0-12 3-15 9l-8 14c-43-28-80-65-108-108l14-9c8-4 11-15 6-23-3-6-9-9-15-9-3 0-6 1-8 3l-15 8c-23-45-37-95-39-148h16c10 0 17-8 17-17s-7-18-17-18h-16c2-53 16-103 39-148l15 9c8 4 18 1 23-7 5-8 2-19-6-23l-14-8c28-44 65-81 108-109l8 14c5 9 15 11 24 7 8-5 11-16 6-24l-8-14c45-23 95-37 148-40v17c0 9 8 17 17 17s17-8 17-17v-17c53 3 104 17 148 40l-8 14c-5 8-2 19 6 24 9 4 19 2 24-7l8-14c43 28 80 65 108 109l-14 8c-8 4-11 15-6 23 5 8 15 11 23 7l15-9c23 45 37 95 39 148h-16c-10 0-17 8-17 18s7 17 17 17h16c-2 53-16 103-39 148l-15-8c-2-2-5-3-8-3-6 0-12 3-15 9-5 8-2 19 6 23z m-100-204h-123c-7-29-34-51-66-51-38 0-69 31-69 69 0 31 22 58 52 66v174c0 10 8 17 17 17s17-7 17-17v-174c24-6 43-25 49-49h123c10 0 17-8 17-17s-7-18-17-18z m174 368l70-70c4-4 8-5 13-5s9 1 12 5c54 54 54 143 0 197-27 27-62 41-99 41-37 0-72-14-99-41-3-3-5-7-5-12s2-9 5-12l79-79-29-29c-83 74-191 119-310 119s-227-45-309-119l-30 29 79 79c3 3 5 7 5 12s-2 9-5 12c-27 27-62 41-99 41-37 0-72-14-99-41-54-54-54-143 0-197 4-4 8-5 12-5s9 1 13 5l70 70 29-29c-81-83-130-197-130-321 0-171 92-320 229-401l-52-52c-7-6-7-17 0-24 3-3 8-5 12-5s9 2 12 5l59 59c62-30 131-47 204-47s142 17 204 47l59-59c3-3 8-5 12-5s9 2 12 5c7 7 7 18 0 24l-52 52c137 81 229 230 229 401 0 124-49 238-130 321l29 29z m-21-152c0 0 0 0 1-1 0 0 0 0 0-1 33-58 53-125 53-197s-20-138-53-196c0-1 0-1 0-1-1-1-1-1-1-1-35-59-84-109-143-143-1-1-1-1-1-1-1 0-1 0-2-1-57-33-125-52-196-52s-138 19-196 52c-1 1-1 1-2 1 0 0 0 0 0 1-60 34-109 83-144 143 0 0 0 0 0 1-1 0-1 0-1 1-33 58-52 125-52 196s19 139 52 197c0 1 0 1 1 1 0 1 0 1 0 1 35 59 84 109 144 143 0 1 0 1 0 1 1 0 1 0 1 0 58 34 125 53 197 53 72 0 139-19 197-53 0 0 0 0 1 0 0 0 0 0 1-1 59-34 108-84 143-143z" horiz-adv-x="1000" />

<glyph glyph-name="lungs" unicode="&#x6e;" d="M950 436c-78 173-177 276-262 276-17 0-33-5-47-13-69-43-72-176-72-190 0-5-1-42-2-93l-28 11v384c0 11-9 19-19 19h-40c-10 0-19-8-19-19v-384l-28-11c-1 51-2 88-2 92 0 15-3 148-72 191-14 8-30 13-47 13-85 0-183-103-262-276-105-228-12-540-8-553 2-8 10-13 18-13 2 0 3 0 5 0 3 1 84 20 169 51 121 44 183 88 191 133 10 55 10 208 9 321l53 20h27l52-20c-1-113-1-266 9-321 8-45 70-89 191-133 85-31 166-50 170-51 1 0 3 0 4 0 8 0 16 5 19 13 4 13 96 325-9 553z m-572-86l-138-72v-57l10-33 27-25c7-7 8-20 0-27-4-4-9-6-14-6-4 0-9 2-13 5l-28 28-33-36c-3-4-9-6-14-6-5 0-9 1-13 5-8 7-8 19-1 27l40 45v60l-76-39c-3-1-6-2-9-2-7 0-13 4-17 10-5 10-1 22 9 26l16 9-30 24c-8 7-10 19-3 28 7 8 19 9 27 3l44-35 106 54-91 69c-8 7-10 19-4 27 7 9 19 11 28 4l29-22 2 22c2 11 11 19 22 17 10-1 18-10 17-21l-5-45 40-31 54 28c9 5 21 1 26-8 5-10 1-22-8-26z m528-64l-30-24 17-9c9-4 13-16 8-26-4-6-10-10-17-10-3 0-6 1-9 2l-76 39v-60l40-45c8-8 7-20-1-27-4-4-8-5-13-5-5 0-10 2-14 6l-32 36-29-28c-4-3-8-5-13-5-5 0-10 2-14 6-8 7-7 20 0 27l27 25 10 33v57l-138 72c-9 4-13 16-8 26 5 9 17 13 26 8l54-28 40 31-5 45c-1 11 7 20 17 21 11 2 21-6 22-17l2-22 30 22c8 7 20 5 27-4 6-8 4-20-4-27l-91-69 106-54 44 35c8 6 20 5 27-3 7-9 5-21-3-28z" horiz-adv-x="1000" />

<glyph glyph-name="mountain" unicode="&#x70;" d="M471 788l-234-460-78 77c0 0-177-378-155-378l935 0 0 0-196 417-58-36-214 380 0 0z m-141-380l144 279 135-240-58-39-79 75-142-75 0 0z" horiz-adv-x="1000" />

<glyph glyph-name="farenheit" unicode="&#x72;" d="M229 517c-58 0-104 46-104 104s46 104 104 104 104-46 104-104-45-104-104-104z m0 125c-12 0-21-9-21-21s9-21 21-21 21 8 21 21-8 21-21 21z m229-667c-25 0-41 17-41 42v583c0 46 37 83 83 83h292c25 0 41-16 41-41s-16-42-41-42h-292v-583c0-25-17-42-42-42z m334 333h-334c-25 0-41 17-41 42s16 42 41 42h334c25 0 41-17 41-42s-16-42-41-42z" horiz-adv-x="1000" />

<glyph glyph-name="celcius" unicode="&#x73;" d="M625-25c-137 0-250 113-250 250v250c0 138 113 250 250 250s250-112 250-250c0-25-17-42-42-42s-41 17-41 42c0 92-75 167-167 167s-167-75-167-167v-250c0-92 75-167 167-167s167 75 167 167c0 25 16 42 41 42s42-17 42-42c0-137-112-250-250-250z m-396 542c-58 0-104 46-104 104s46 104 104 104 104-46 104-104-45-104-104-104z m0 125c-12 0-21-9-21-21s9-21 21-21 21 8 21 21-8 21-21 21z" horiz-adv-x="1000" />

<glyph glyph-name="Floors" unicode="&#x74;" d="M148 424c7-7 18-7 25 0l171 171 0-80c0-10 8-18 18-18h31c10 0 18 8 18 18v176c0 5-2 9-6 13-3 3-8 5-12 5l-176 0c-10 0-19-8-19-18v-31c0-10 9-18 19-18h79l-170-170c-7-8-7-19 0-26l22-22z m834 426h-164c-10 0-18-8-18-18v-164c0-10-8-18-18-18h-164c-10 0-18-8-18-18v-164c0-10-8-18-18-18h-164c-10 0-18-8-18-18v-164c0-10-8-18-18-18h-164c-10 0-18-8-18-18v-164c0-10-8-18-18-18h-164c-10 0-18-8-18-18v-164c0-10 8-18 18-18h919c35 0 63 28 63 63 0 186 0 339 0 537 0 294 0 112 0 382 0 10-8 18-18 18z m-141-525l-171-171 80 0c5 0 9-2 13-5 3-3 5-8 5-13v-31c0-10-8-18-18-18l-176 0c-5 0-9 2-13 5-3 4-5 9-5 13v176c0 10 8 18 18 18h31c5 0 9-1 13-5 3-3 5-8 5-13l0-80 170 171c4 3 8 5 13 5 5 0 10-2 13-5l22-22c3-3 5-8 5-13 0-4-2-9-5-12z" horiz-adv-x="1000" />

<glyph glyph-name="running-vo2max" unicode="&#x75;" d="M760 744c30 0 53 23 53 52 0 29-23 53-53 53-29 0-52-24-52-53 0-29 23-52 52-52z m-173-243l-17-38-73 0c-19 0-35-15-35-35 0-19 16-35 35-35l85 0c21 0 40 13 48 32l10 23-12 6c-19 12-33 28-41 47z m296 103l-48 0-29 58c-13 28-38 48-67 56l-78 23c-31 7-64 0-89-19l-44-33c-15-12-18-34-6-49 12-16 34-19 49-7l44 33c8 7 19 9 27 7l16-5-41-95c-13-33-1-71 29-88l94-55-31-96c-5-19 5-39 23-44 4-1 7-2 11-2 15 0 29 10 33 25l35 110c7 23-3 48-24 60l-67 40 35 85 22-45c9-18 27-30 47-30l59 0c20 0 36 16 36 35 0 20-16 36-36 36z m-472-402c-13 0-24-3-32-7-9-5-16-12-21-20-6-8-9-17-12-28-2-11-3-22-3-34 0-14 1-27 3-38 2-11 6-21 11-29 5-8 12-14 20-18 9-4 19-6 32-6 13 0 24 2 32 7 9 5 16 11 21 19 6 9 9 18 12 29 2 11 3 23 3 35 0 13-1 26-3 37-2 11-6 20-11 28-5 8-12 14-21 18-8 5-19 7-31 7z m-339 39c6 0 11 0 15 0 3 0 6-1 8-1 1-1 3-2 3-3 1-2 2-3 2-5l63-199 0 0 62 198c0 2 1 4 2 5 0 2 2 3 4 3 2 1 4 2 8 2 4 0 8 0 15 0 6 0 10 0 14 0 3-1 6-2 7-3 1-2 1-4 1-7 0-2-1-6-3-11l-77-228c0-2-1-4-2-5-1-2-3-3-6-3-2-1-5-2-9-2-4 0-10 0-16 0-6 0-10 0-14 0-4 0-7 0-10 0-2 1-4 1-6 2-2 0-3 1-4 2-1 0-2 1-3 2 0 2-1 3-1 5l-77 228c-2 4-3 8-3 11 0 3 0 5 2 6 2 2 5 3 9 3 4 0 9 0 16 0z m340 4c20 0 37-3 52-8 15-5 27-13 37-24 10-11 18-24 23-40 5-17 8-36 8-58 0-22-3-41-8-58-6-16-13-31-24-42-10-12-23-21-39-27-15-6-33-10-53-10-20 0-38 3-53 8-15 6-27 14-37 24-10 11-17 25-22 41-5 17-8 36-8 59 0 21 3 40 8 56 6 17 13 31 24 43 10 11 23 20 39 26 15 7 33 10 53 10z m202-189c9 0 17-1 23-3 7-2 12-6 17-10 4-4 7-8 10-14 2-5 3-11 3-18 0-5-1-11-2-16-1-5-3-11-6-17-4-7-8-14-14-21-7-8-15-16-25-26l-20-21 68 0c1 0 1 0 2-1 1 0 2-1 2-2 1-1 1-3 1-4 1-2 1-4 1-7 0-2 0-4-1-6 0-2 0-4-1-5 0-1-1-2-1-2-1-1-2-1-3-1l-98 0c-2 0-4 0-5 1-1 0-3 1-3 2-1 1-2 2-2 4-1 2-1 5-1 8 0 3 0 5 0 7 1 2 1 4 2 6 1 1 2 3 3 4 1 2 2 4 4 6l30 31c5 6 10 12 14 17 3 5 6 10 8 14 2 4 4 8 4 11 1 4 2 7 2 11 0 3-1 5-2 8-1 2-2 5-4 7-2 2-4 3-7 4-2 1-6 2-9 2-6 0-10-1-14-2-4-1-8-3-11-5-3-1-5-3-7-4-2-1-4-2-5-2-1 0-2 0-2 1-1 0-1 1-2 2 0 2 0 3 0 5-1 2-1 5-1 8 0 2 0 4 0 5 1 1 1 3 1 4 0 1 1 1 1 2 1 1 1 2 2 3 2 1 4 2 6 4 3 2 7 3 11 5 5 1 9 3 15 4 5 1 10 1 16 1z m534 9c-8 0-15 0-21-2-6-1-10-3-14-5-4-2-6-5-8-9-1-3-2-7-2-11 0-8 2-13 7-18 4-4 11-6 19-6 7 0 14 2 20 5 6 4 12 9 18 16l0 30z m125 110c6 0 10 0 14 0 3 0 6-1 8-1 2-1 4-1 4-2 1-1 2-2 3-3l31-60 32 60c0 1 1 2 2 2 0 1 2 2 3 2 2 1 4 1 7 2 3 0 7 0 13 0 5 0 10 0 14 0 3-1 6-1 7-2 2-1 2-2 2-4 0-2 0-4-2-6l-44-81 49-89c1-2 1-4 1-5 0-2-1-3-3-4-2-1-4-1-8-2-4 0-9 0-16 0-6 0-10 0-14 0-4 0-6 1-9 1-2 1-3 2-4 3-1 0-2 1-2 3l-33 63-33-63c0-2-1-3-2-3-1-1-2-2-4-3-2 0-5-1-8-1-4 0-8 0-14 0-6 0-10 0-14 0-3 1-6 1-7 2-2 1-3 2-3 4 0 1 1 3 2 5l49 88-45 82c-2 2-2 4-2 6 0 1 0 3 2 3 2 1 5 2 8 2 4 1 9 1 16 1z m-136 3c14 0 26-1 36-4 10-2 18-7 24-12 7-6 11-13 14-22 3-9 5-19 5-32l0-119c0-2-1-3-2-4-2-1-4-2-7-2-2-1-7-1-12-1-6 0-10 0-13 1-3 0-5 1-6 2-1 1-2 2-2 4l0 14c-7-8-15-14-25-18-9-4-19-7-31-7-9 0-18 2-26 4-7 3-14 6-20 11-6 5-10 11-13 18-4 7-5 16-5 25 0 11 2 19 6 27 4 8 10 14 18 19 8 5 18 9 30 11 12 2 26 4 41 4l18 0 0 10c0 6-1 11-2 15-1 4-3 8-6 10-2 3-6 5-10 6-4 2-10 2-16 2-8 0-16 0-22-2-7-2-13-4-18-6-5-3-9-5-12-7-4-1-6-2-9-2-1 0-2 0-3 1-2 1-2 2-3 4-1 2-1 4-2 6 0 3 0 6 0 9 0 4 0 7 1 9 0 3 1 5 3 7 2 2 5 4 10 6 5 3 10 5 16 7 7 2 13 3 21 5 7 1 15 1 22 1z m-405 62l35 0c6 0 11 0 15-1 5-1 8-3 12-5 3-3 5-6 7-9 3-4 4-9 6-14l56-154 0 0 58 153c2 6 4 10 6 14 2 4 4 7 7 10 3 2 6 4 10 5 3 1 8 1 12 1l36 0c3 0 6 0 9-1 2-1 5-2 6-4 2-2 3-4 4-7 1-2 1-5 1-9l0-229c0-1 0-2-1-3-1-1-2-2-4-3-2-1-4-1-7-2-4 0-8 0-13 0-4 0-8 0-11 0-4 1-6 1-8 2-2 1-3 2-4 3-1 1-1 2-1 3l0 209-1 0-74-209c-1-1-1-3-3-4-1-1-3-2-5-3-2 0-4-1-7-1-4 0-7 0-12 0-4 0-8 0-11 0-4 1-6 1-8 2-2 1-4 2-5 3-1 1-2 2-3 3l-71 209-1 0 0-209c0-1 0-2-1-3-1-1-2-2-4-3-2-1-5-1-8-2-3 0-7 0-12 0-4 0-8 0-12 0-3 1-5 1-7 2-2 1-4 2-4 3-1 1-1 2-1 3l0 229c0 7 1 12 5 16 4 3 8 5 14 5z" horiz-adv-x="1479" />

<glyph glyph-name="cycling-vo2max" unicode="&#x76;" d="M376 171c-12 0-22-3-30-7-7-4-14-10-19-18-4-7-8-16-10-25-2-10-3-21-3-32 0-12 1-24 3-34 2-10 5-19 10-26 5-8 11-13 18-17 8-4 18-6 30-6 11 0 21 3 29 7 8 4 14 10 19 18 5 7 8 16 10 26 2 10 3 20 3 32 0 12-1 23-3 33-2 10-5 19-10 26-4 7-11 13-18 17-8 4-18 6-29 6z m-309 36c6 0 10-1 14-1 3 0 5 0 7-1 1-1 3-2 3-3 1-1 2-2 2-4l57-181 0 0 56 180c1 2 1 4 2 5 1 1 2 2 4 3 2 1 4 1 7 1 4 0 8 1 14 1 5 0 10-1 13-1 3 0 5-1 6-3 1-1 2-3 1-5 0-3-1-6-3-11l-70-207c0-3-1-4-2-5-1-2-2-3-5-3-2-1-5-1-9-2-3 0-8 0-14 0-5 0-9 0-13 0-3 0-6 0-8 1-3 0-5 0-6 1-2 0-3 1-4 2-1 0-2 1-2 2-1 1-1 2-2 4l-70 208c-1 4-2 8-2 10-1 3 0 5 2 6 1 1 4 2 7 2 4 0 9 1 15 1z m310 3c18 0 34-3 47-7 14-5 25-12 34-22 10-10 16-22 21-37 5-15 7-33 7-53 0-19-2-37-7-52-5-15-12-28-22-39-9-11-21-19-35-25-14-5-30-8-49-8-18 0-34 2-48 7-13 5-24 12-34 22-9 10-15 22-20 37-4 15-7 33-7 54 0 19 3 36 8 51 4 15 12 28 21 39 10 10 21 19 35 24 15 6 31 9 49 9z m184-172c8 0 15-1 21-3 6-2 11-5 15-9 4-3 7-8 9-13 2-5 3-10 3-16 0-5 0-10-1-15-1-5-3-10-6-16-3-5-8-12-13-19-6-6-13-14-22-23l-18-19 61 0c1 0 2 0 2-1 1 0 2-1 2-2 0-1 1-2 1-4 0-2 0-4 0-6 0-2 0-4 0-6 0-1 0-3-1-4 0-1-1-2-1-2-1-1-2-1-2-1l-90 0c-2 0-3 0-5 1-1 0-2 1-3 2-1 1-1 2-1 4-1 1-1 4-1 7 0 2 0 4 0 6 1 2 1 4 2 5 0 2 1 3 2 5 1 1 2 3 4 4l27 29c5 6 10 11 13 16 3 4 6 8 8 12 2 4 3 8 4 11 0 3 1 6 1 9 0 3-1 5-2 7-1 3-2 5-3 7-2 1-4 3-7 4-2 1-5 1-8 1-5 0-9 0-13-1-4-2-7-3-10-4-2-2-5-3-7-5-1-1-3-2-4-2-1 0-1 1-2 1 0 1-1 1-1 3 0 1-1 2-1 4 0 2 0 4 0 7 0 2 0 4 0 5 0 1 0 2 1 3 0 1 0 2 1 2 0 1 1 2 2 3 1 1 3 2 5 4 3 1 6 2 10 4 4 1 8 2 13 3 5 1 10 2 15 2z m486 8c-7 0-13 0-19-2-5-1-9-2-12-4-4-3-6-5-7-8-2-3-3-7-3-11 0-7 2-12 7-16 4-4 10-6 18-6 6 0 12 2 17 5 6 3 11 8 17 15l0 27z m114 100c6 0 10 0 13 0 3 0 6-1 8-1 1 0 3-1 4-2 0 0 1-1 2-3l29-54 28 54c0 1 1 2 2 3 0 1 2 1 3 2 2 0 4 1 7 1 2 0 6 0 11 0 5 0 9 0 12 0 4 0 6-1 7-2 2-1 2-2 2-3 0-2 0-4-2-6l-40-74 44-80c1-2 2-4 2-5 0-2-1-3-3-4-2-1-4-1-8-1-3-1-8-1-14-1-5 0-9 0-13 0-3 1-6 1-7 1-2 1-4 2-5 2-1 1-1 2-2 3l-30 58-29-58c-1-1-2-2-2-3-1 0-3-1-4-2-2 0-5 0-8-1-3 0-7 0-12 0-5 0-9 0-13 1-3 0-5 0-7 1-1 1-2 2-2 4 0 1 1 3 2 5l44 79-41 75c-1 2-1 4-2 5 0 2 1 3 3 4 1 1 4 1 7 2 4 0 8 0 14 0z m-123 3c13 0 23-1 32-3 9-3 17-7 23-12 5-5 10-12 12-20 3-8 4-17 4-28l0-109c0-2 0-3-2-4-1-1-3-2-5-2-3-1-7-1-12-1-5 0-9 0-12 1-2 0-4 1-5 2-1 1-1 2-1 4l0 13c-7-7-15-13-23-17-9-4-18-6-28-6-9 0-17 1-24 3-7 3-13 6-19 10-5 5-9 10-12 17-3 6-4 14-4 23 0 9 2 17 5 24 4 7 9 13 17 17 7 5 16 8 27 10 11 3 23 4 38 4l16 0 0 9c0 5-1 10-2 14-1 4-3 7-5 9-2 3-6 5-9 6-4 1-9 2-15 2-8 0-14-1-20-3-6-2-12-3-16-5-5-3-9-4-12-6-3-2-5-3-7-3-2 0-3 1-4 2-1 0-2 2-2 3-1 2-1 4-2 6 0 2 0 5 0 8 0 3 0 6 1 9 0 2 1 4 3 5 2 2 5 4 9 6 4 2 9 4 15 6 5 2 12 3 18 5 7 1 14 1 21 1z m-369 57l31 0c6 0 10-1 14-2 4-1 8-2 11-4 3-2 5-5 7-9 2-3 3-7 5-12l51-140 0 0 53 139c1 5 3 10 5 13 2 4 4 6 6 9 3 2 6 3 9 4 4 1 8 2 12 2l32 0c3 0 6-1 8-2 3-1 5-2 6-3 2-2 3-4 4-6 1-3 1-5 1-8l0-209c0-1 0-3-1-4-1-1-2-1-4-2-1-1-4-1-7-1-3-1-6-1-11-1-4 0-8 0-11 1-2 0-5 0-6 1-2 1-3 1-4 2-1 1-1 3-1 4l0 190-1 0-67-190c-1-2-2-3-3-4-1-1-2-2-4-2-2-1-4-1-7-2-3 0-7 0-11 0-4 0-7 0-10 1-3 0-6 0-8 1-1 1-3 1-4 2-1 1-2 3-2 4l-66 190 0 0 0-190c0-1 0-3-1-4-1-1-2-1-4-2-2-1-4-1-7-1-3-1-6-1-11-1-4 0-8 0-10 1-3 0-6 0-7 1-2 1-3 1-4 2-1 1-1 3-1 4l0 209c0 6 2 10 5 14 3 3 7 5 13 5z m204 320c-76 0-138-62-138-137 0-76 62-138 138-138 75 0 137 62 137 138 0 75-62 137-137 137z m0-234c-53 0-97 43-97 97 0 53 44 96 97 96 53 0 96-43 96-96 0-54-43-97-96-97z m-395 234c-76 0-138-62-138-137 0-76 62-138 138-138 76 0 137 62 137 138 0 75-61 137-137 137z m0-234c-53 0-96 43-96 97 0 53 43 96 96 96 53 0 96-43 96-96 0-54-43-97-96-97z m211 242l-38 30 75 39 64-53c4-4 10-6 16-7l61-3c14-1 27 10 29 24 3 16-7 26-23 29l-62 9c0 0-45 62-56 73-30 32-49 50-84 33l-107-53c-31-16-51-57-34-92 9-18 22-26 42-39l62-38 7-119c1-16 15-29 32-29 17 0 31 14 31 31l-1 139c0 10-5 20-14 26z m93 124c6-4 14-7 22-9l0 0c20-4 41 2 56 17 14 14 21 36 17 56-5 20-19 37-37 45-19 7-41 5-58-6-17-12-28-32-28-52 1-20 11-39 28-51z" horiz-adv-x="1347" />

<glyph glyph-name="path-distance" unicode="&#x77;" d="M181 809c-63 0-125-47-125-141l125-250 125 250c0 94-63 141-125 141z m551-76c-13-1-26-3-37-6l7-34c11 2 22 4 32 5z m-551-2c34 0 62-28 62-63 0-34-28-62-62-62-35 0-63 28-63 62 0 35 28 63 63 63z m590 0l-6-35c10-2 19-5 28-10l17 31c-12 7-25 12-39 14z m-112-14c-12-4-24-8-34-12l14-33c10 5 22 9 31 12z m183-26l-27-23c7-8 13-18 17-26l31 16c-6 13-12 23-21 33z m-250-1c-12-7-21-12-32-17l17-31c10 6 21 11 30 16z m-63-35c-10-7-20-13-30-19l19-30c9 7 19 13 29 18z m346-35c-11-2-23-4-34-5 0-10 0-20-2-29l34-8c2 14 4 29 2 42z m-406-4c-10-6-19-13-29-20l20-29c10 7 19 14 29 20z m-58-41c-10-7-20-15-28-21l21-28c11 8 18 14 28 21z m416-16c-6-9-12-18-19-24l25-25c9 10 18 20 24 30z m-472-27c-10-8-19-15-28-22l23-27c9 7 18 15 27 21z m428-20c-9-7-18-14-27-20l21-29c10 7 20 15 29 22z m-483-25c-9-7-18-15-27-23l23-27c9 8 18 16 27 23z m428-14c-10-6-21-12-30-17l17-31c10 7 22 12 31 18z m-481-32c-9-8-18-16-27-24l24-26c9 8 17 16 26 24z m420-1c-10-5-20-10-31-15l15-32c13 6 22 11 32 16z m-62-30c-11-5-21-10-32-14l14-32c11 4 22 9 32 14z m-410-17c-10-9-17-16-26-24l24-26c10 9 17 17 26 24z m346-11c-11-5-22-9-32-14l13-33c11 5 22 10 33 14z m-65-28c-11-4-21-9-32-13l13-33c11 5 22 9 33 14z m361-14c-62 0-125-47-125-140l125-250 125 250c0 93-62 140-125 140z m-426-13c-11-5-22-10-32-14l14-32c11 5 22 9 32 14z m-64-28c-11-5-23-10-33-14l15-32c11 5 21 10 32 14z m-65-29c-11-5-22-11-32-16l16-31c10 5 21 10 31 15z m555-8c35 0 63-28 63-62s-28-63-63-63-62 28-62 63 28 62 62 62z m-619-24c-10-6-20-11-31-17l18-31c10 6 20 11 30 17z m-62-36c-10-7-21-15-30-21l21-28c10 7 20 14 29 19z m-58-45c-9-8-19-18-26-26l27-23c8 9 14 16 23 23z m425-2l4-35c10 2 20 1 30-1l6 35c-13 2-26 3-40 1z m-72-20l13-32c10 4 21 8 32 11-4 11-7 23-10 34-12-4-24-8-35-13z m151 2l-20-29c8-6 16-12 23-20l26 23c-9 10-17 20-29 26z m-184-17c-11-6-21-12-32-18l18-30c10 5 20 11 30 17z m-367-22c-6-13-11-26-13-38l35-6c2 11 5 19 9 28-11 5-21 11-31 16z m305-15c-10-7-20-13-30-20l20-29c10 6 19 13 29 20z m298-2l-30-20c7-9 13-19 18-29l31 18c-7 11-12 21-19 31z m-357-38c-10-6-19-12-29-19l20-30c9 7 19 14 29 21z m-224-18c-11-2-23-4-34-7 2-13 7-27 12-37l32 15c-4 10-8 20-10 29z m617-6l-30-17c6-11 13-22 19-31l29 19c-7 10-12 20-18 29z m-451-14c-10-6-19-12-29-18l17-31c10 6 21 13 31 19z m-139-32l-24-26c11-10 24-17 39-20l8 34c-9 2-17 6-23 12z m80-1c-10-4-20-8-31-10l8-34c13 2 25 7 37 12z m547-9l-27-22c9-11 19-21 28-28l22 28c-9 7-16 15-23 22z m47-34l-8-35c15-3 27-4 41-2l-4 35c-10-2-19-1-29 2z" horiz-adv-x="1000" />

<glyph glyph-name="running" unicode="&#x79;" d="M983 632l-2 3c-23 23-61 23-84 0l-90-91c-5-5-12-5-17 0l-126 116c-13 11-29 18-45 18h-188c-4 0-9-2-12-5l-159-151c-23-24-25-61-4-84 12-12 27-19 44-19h0c17 0 32 7 43 19l113 119h40l-262-293h-162c-38 0-70-29-72-65-1-20 6-38 19-52 13-13 31-21 50-21h241c5 0 10 2 13 5l124 132 103-108-31-201c-8-33 8-67 38-80 9-5 19-7 29-7 10 0 21 3 30 7 19 10 32 26 37 47l53 288c1 6 0 11-4 15l-143 143 113 114 80-79c22-23 60-23 82 0l149 148c11 11 17 26 17 41 0 16-6 30-17 41z m-190-6c57 0 103 46 103 103 0 57-46 104-103 104-57 0-104-47-104-104 0-57 47-103 104-103z" horiz-adv-x="1000" />
</font>
</defs>
</svg>
